<svg width="32" height="32" viewBox="0 0 32 32" fill="none" xmlns="http://www.w3.org/2000/svg">
<g id="HardDrives-r">
<g id="Vector">
<path fill-rule="evenodd" clip-rule="evenodd" d="M4 19C4 19 4 18.1716 4.58579 17.5858C4.58579 17.5858 5.17157 17 6 17H26C26 17 26.8284 17 27.4142 17.5858C27.4142 17.5858 28 18.1716 28 19V25C28 25 28 25.8284 27.4142 26.4142C27.4142 26.4142 26.8284 27 26 27H6C6 27 5.17157 27 4.58579 26.4142C4.58579 26.4142 4 25.8284 4 25V19ZM6 19V25L26 25V19H6Z" fill="#1C1C1C"/>
<path fill-rule="evenodd" clip-rule="evenodd" d="M4 7C4 7 4 6.17157 4.58579 5.58579C4.58579 5.58579 5.17157 5 6 5H26C26 5 26.8284 5 27.4142 5.58579C27.4142 5.58579 28 6.17157 28 7V13C28 13 28 13.8284 27.4142 14.4142C27.4142 14.4142 26.8284 15 26 15H6C6 15 5.17157 15 4.58579 14.4142C4.58579 14.4142 4 13.8284 4 13V7ZM6 7V13L26 13V7H6Z" fill="#1C1C1C"/>
<path d="M24 10C24 10.8284 23.3284 11.5 22.5 11.5C21.6716 11.5 21 10.8284 21 10C21 9.17163 21.6716 8.5 22.5 8.5C23.3284 8.5 24 9.17163 24 10Z" fill="#1C1C1C"/>
<path d="M24 22C24 22.8284 23.3284 23.5 22.5 23.5C21.6716 23.5 21 22.8284 21 22C21 21.1716 21.6716 20.5 22.5 20.5C23.3284 20.5 24 21.1716 24 22Z" fill="#1C1C1C"/>
</g>
</g>
</svg>
